<svg xmlns="http://www.w3.org/2000/svg" width="70" height="70" viewBox="0 0 70 70" style="width: 100%; height: 100%;"><desc>Made with illustrio</desc>
  
<g class="base"><g fill="none" fill-rule="evenodd" stroke="none" class="main-stroke">
    
    
  </g><g fill="none" transform="translate(19.09 19.09)" stroke="none" class="main-stroke">
      <path d="M29.5909091 3.81818182L26.7272727 3.81818182 26.7272727.636363636C26.7272727.285090909 26.4428182 0 26.0909091 0 25.739 0 25.4545455.285090909 25.4545455.636363636L25.4545455 3.81818182 6.36363636 3.81818182 6.36363636.636363636C6.36363636.285090909 6.07854545 0 5.72727273 0 5.376 0 5.09090909.285090909 5.09090909.636363636L5.09090909 3.81818182 2.22727273 3.81818182C.999090909 3.81818182 0 4.81727273 0 6.04545455L0 10.1818182 31.8181818 10.1818182 31.8181818 6.04545455C31.8181818 4.81727273 30.8190909 3.81818182 29.5909091 3.81818182L29.5909091 3.81818182zM0 29.5909091C0 30.8190909.999090909 31.8181818 2.22727273 31.8181818L29.5909091 31.8181818C30.8190909 31.8181818 31.8181818 30.8190909 31.8181818 29.5909091L31.8181818 11.4545455 0 11.4545455 0 29.5909091 0 29.5909091zM24.8181818 14.6363636L27.3636364 14.6363636 27.3636364 17.1818182 24.8181818 17.1818182 24.8181818 14.6363636 24.8181818 14.6363636zM24.8181818 19.7272727L27.3636364 19.7272727 27.3636364 22.2727273 24.8181818 22.2727273 24.8181818 19.7272727 24.8181818 19.7272727zM24.8181818 24.8181818L27.3636364 24.8181818 27.3636364 27.3636364 24.8181818 27.3636364 24.8181818 24.8181818 24.8181818 24.8181818zM19.7272727 14.6363636L22.2727273 14.6363636 22.2727273 17.1818182 19.7272727 17.1818182 19.7272727 14.6363636 19.7272727 14.6363636zM19.7272727 19.7272727L22.2727273 19.7272727 22.2727273 22.2727273 19.7272727 22.2727273 19.7272727 19.7272727 19.7272727 19.7272727zM19.7272727 24.8181818L22.2727273 24.8181818 22.2727273 27.3636364 19.7272727 27.3636364 19.7272727 24.8181818 19.7272727 24.8181818zM14.6363636 14.6363636L17.1818182 14.6363636 17.1818182 17.1818182 14.6363636 17.1818182 14.6363636 14.6363636 14.6363636 14.6363636zM14.6363636 19.7272727L17.1818182 19.7272727 17.1818182 22.2727273 14.6363636 22.2727273 14.6363636 19.7272727 14.6363636 19.7272727zM14.6363636 24.8181818L17.1818182 24.8181818 17.1818182 27.3636364 14.6363636 27.3636364 14.6363636 24.8181818 14.6363636 24.8181818zM9.54545455 14.6363636L12.0909091 14.6363636 12.0909091 17.1818182 9.54545455 17.1818182 9.54545455 14.6363636 9.54545455 14.6363636zM9.54545455 19.7272727L12.0909091 19.7272727 12.0909091 22.2727273 9.54545455 22.2727273 9.54545455 19.7272727 9.54545455 19.7272727zM9.54545455 24.8181818L12.0909091 24.8181818 12.0909091 27.3636364 9.54545455 27.3636364 9.54545455 24.8181818 9.54545455 24.8181818zM4.45454545 14.6363636L7 14.6363636 7 17.1818182 4.45454545 17.1818182 4.45454545 14.6363636 4.45454545 14.6363636zM4.45454545 19.7272727L7 19.7272727 7 22.2727273 4.45454545 22.2727273 4.45454545 19.7272727 4.45454545 19.7272727zM4.45454545 24.8181818L7 24.8181818 7 27.3636364 4.45454545 27.3636364 4.45454545 24.8181818 4.45454545 24.8181818z" fill="none" stroke="none" class="main-stroke"></path>
    </g></g><style>
          .main-fill {fill: #cf092b;}
          .main-stroke {stroke: #cf092b;}
          .secondary-fill {fill: ;}
          .secondary-stroke {stroke: ;}

          .main-fill--darken {fill: #86061c;}
          .main-stroke--darken {stroke: #86061c;}
          .secondary-fill--darken {fill: #000000;}
          .secondary-stroke--darken {stroke: #000000;}

          .main-fill--darkener {fill: #550412;}
          .main-stroke--darkener {stroke: #550412;}
          .secondary-fill--darkener {fill: #000000;}
          .secondary-stroke--darkener {stroke: #000000;}
        </style></svg>