<svg xmlns="http://www.w3.org/2000/svg" width="70" height="70" viewBox="0 0 70 70" style="width: 100%; height: 100%;"><desc>Made with illustrio</desc>
  
<g class="base"><g fill="none" fill-rule="evenodd" stroke="none" class="main-stroke">
    
    
    <path fill="none" d="M6.26654412,0.149132941 C4.66156271,0.149132941 3.06463294,0.764649118 1.84007353,1.98920647 C-0.609046365,4.43832529 -0.609044306,8.40589647 1.84007353,10.8550153 L10.7058824,1.98920647 C9.48132376,0.764649118 7.87152553,0.149132941 6.26654412,0.149132941 Z M28.3216912,0.149132941 C26.7167098,0.149132941 25.1069115,0.764649118 23.8823529,1.98920647 L32.7481618,10.8550153 C35.1972798,8.40589647 35.1972818,4.43832529 32.7481618,1.98920647 C31.5236024,0.764649118 29.9266726,0.149132941 28.3216912,0.149132941 Z M17.2941176,5.91383882 C10.0169535,5.91383882 4.11764706,11.8131452 4.11764706,19.0903094 C4.11764706,23.6152618 6.39471124,27.6038576 9.86948529,29.9763388 L7.51470588,34.3384712 C7.34276211,34.597954 7.33180089,34.9322067 7.48637499,35.2023972 C7.64094908,35.4725876 7.93464594,35.6325475 8.24547835,35.6158374 C8.55631076,35.5991273 8.83116585,35.4086025 8.95588235,35.1233976 L11.2849265,30.8127359 C13.0872811,31.738392 15.1285894,32.26678 17.2941176,32.26678 C19.4596459,32.26678 21.5009542,31.738392 23.3033088,30.8127359 L25.6323529,35.1233976 C25.7570694,35.4086025 26.0319245,35.5991273 26.3427569,35.6158374 C26.6535894,35.6325475 26.9472862,35.4725876 27.1018603,35.2023972 C27.2564344,34.9322067 27.2454732,34.597954 27.0735294,34.3384712 L24.71875,29.9763388 C28.1935241,27.6038576 30.4705882,23.6152618 30.4705882,19.0903094 C30.4705882,11.8131452 24.5712818,5.91383882 17.2941176,5.91383882 Z M17.2040441,8.37155941 C17.2297653,8.37035253 17.2555289,8.37035253 17.28125,8.37155941 C17.5041271,8.36807188 17.7189003,8.45507167 17.8765176,8.6126889 C18.0341348,8.77030613 18.1211346,8.98507933 18.1176471,9.20795647 L18.1176471,18.6142065 L23.4705882,21.6767065 C23.7603407,21.8042019 23.9514357,22.08642 23.962238,22.4027977 C23.9730402,22.7191754 23.8016395,23.0137704 23.5212579,23.1607321 C23.2408764,23.3076938 22.9010915,23.2810363 22.6470588,23.0921476 L16.8823529,19.79803 C16.6292511,19.6518909 16.4725524,19.382565 16.4705882,19.0903094 L16.4705882,9.20795647 C16.4614082,8.78122197 16.779765,8.41818358 17.2040441,8.37155941 Z" transform="translate(17.706 17.145)" stroke="none" class="main-stroke"></path>
  </g></g><style>
          .main-fill {fill: #cf092b;}
          .main-stroke {stroke: #cf092b;}
          .secondary-fill {fill: ;}
          .secondary-stroke {stroke: ;}

          .main-fill--darken {fill: #86061c;}
          .main-stroke--darken {stroke: #86061c;}
          .secondary-fill--darken {fill: #000000;}
          .secondary-stroke--darken {stroke: #000000;}

          .main-fill--darkener {fill: #550412;}
          .main-stroke--darkener {stroke: #550412;}
          .secondary-fill--darkener {fill: #000000;}
          .secondary-stroke--darkener {stroke: #000000;}
        </style></svg>