<svg xmlns="http://www.w3.org/2000/svg" width="70" height="70" viewBox="0 0 70 70" style="width: 100%; height: 100%;"><desc>Made with illustrio</desc>
  
<g class="base"><g fill="none" fill-rule="evenodd" stroke="none" class="main-stroke">
    
    <path fill="none" d="M12,0 C5.371,0 0,5.375 0,12 C0,15.078 1.168,17.875 3.074,20 L12,32 L20.926,20 C22.832,17.875 24,15.078 24,12 C24,5.375 18.625,0 12,0 Z M12,16 C9.789,16 8,14.211 8,12 C8,9.793 9.789,8 12,8 C14.207,8 16,9.793 16,12 C16,14.211 14.207,16 12,16 Z" transform="translate(23 19)" stroke="none" class="main-stroke"></path>
  </g></g><style>
          .main-fill {fill: #cf092b;}
          .main-stroke {stroke: #cf092b;}
          .secondary-fill {fill: ;}
          .secondary-stroke {stroke: ;}

          .main-fill--darken {fill: #86061c;}
          .main-stroke--darken {stroke: #86061c;}
          .secondary-fill--darken {fill: #000000;}
          .secondary-stroke--darken {stroke: #000000;}

          .main-fill--darkener {fill: #550412;}
          .main-stroke--darkener {stroke: #550412;}
          .secondary-fill--darkener {fill: #000000;}
          .secondary-stroke--darkener {stroke: #000000;}
        </style></svg>